<?xml version="1.0" encoding="UTF-8" standalone="no"?>


<svg
   xmlns:dc="http://purl.org/dc/elements/1.1/"
   xmlns:cc="http://creativecommons.org/ns#"
   xmlns:rdf="http://www.w3.org/1999/02/22-rdf-syntax-ns#"
   xmlns:svg="http://www.w3.org/2000/svg"
   xmlns="http://www.w3.org/2000/svg"
   xmlns:sodipodi="http://sodipodi.sourceforge.net/DTD/sodipodi-0.dtd"
   xmlns:inkscape="http://www.inkscape.org/namespaces/inkscape"
   version="1.1"
   id="Layer_1"
   x="0px"
   y="0px"
   viewBox="28.2 317.2 100 192"
   xml:space="preserve"
   sodipodi:docname="444444444444444.svg"
   width="100"
   height="192"
   inkscape:version="0.92.4 (5da689c313, 2019-01-14)"><title
   id="title956">Sony Pictures HE</title><metadata
   id="metadata143"><rdf:RDF><cc:Work
       rdf:about=""><dc:format>image/svg+xml</dc:format><dc:type
         rdf:resource="http://purl.org/dc/dcmitype/StillImage" /><dc:title>Sony Pictures HE</dc:title><cc:license
         rdf:resource="http://scripts.sil.org/OFL" /></cc:Work><cc:License
       rdf:about="http://scripts.sil.org/OFL"><cc:permits
         rdf:resource="http://scripts.sil.org/pub/OFL/Reproduction" /><cc:permits
         rdf:resource="http://scripts.sil.org/pub/OFL/Distribution" /><cc:permits
         rdf:resource="http://scripts.sil.org/pub/OFL/Embedding" /><cc:permits
         rdf:resource="http://scripts.sil.org/pub/OFL/DerivativeWorks" /><cc:requires
         rdf:resource="http://scripts.sil.org/pub/OFL/Notice" /><cc:requires
         rdf:resource="http://scripts.sil.org/pub/OFL/Attribution" /><cc:requires
         rdf:resource="http://scripts.sil.org/pub/OFL/ShareAlike" /><cc:requires
         rdf:resource="http://scripts.sil.org/pub/OFL/DerivativeRenaming" /><cc:requires
         rdf:resource="http://scripts.sil.org/pub/OFL/BundlingWhenSelling" /></cc:License></rdf:RDF></metadata><defs
   id="defs141" /><sodipodi:namedview
   pagecolor="#ffffff"
   bordercolor="#666666"
   borderopacity="1"
   objecttolerance="10"
   gridtolerance="10"
   guidetolerance="10"
   inkscape:pageopacity="0"
   inkscape:pageshadow="2"
   inkscape:window-width="1366"
   inkscape:window-height="705"
   id="namedview139"
   showgrid="false"
   inkscape:showpageshadow="false"
   inkscape:zoom="1.9966906"
   inkscape:cx="44.723647"
   inkscape:cy="79.988903"
   inkscape:window-x="-8"
   inkscape:window-y="-8"
   inkscape:window-maximized="1"
   inkscape:current-layer="Layer_1" />
<style
   type="text/css"
   id="style2">
	.st0{fill:#1E597F;}
</style>
<g
   id="g136"
   transform="matrix(1.279661,0,0,1.279661,-5.3926616,-88.254237)"
   style="fill:#000000">
	<g
   id="g72"
   style="fill:#000000">
		<path
   style="fill:#000000;stroke-width:1.27966106"
   d="M 97.957031 0.45507812 L 93.09375 2.7578125 C 93.221716 4.5493379 93.35055 6.2133938 93.478516 7.8769531 C 94.118346 24.128648 95.140625 24.384448 95.140625 39.228516 C 95.140625 54.072583 94.629125 63.413169 93.861328 76.849609 L 97.445312 75.185547 C 96.933449 61.365208 96.164062 54.072656 96.164062 38.972656 C 96.164062 26.431978 97.188295 21.8249 97.828125 5.7011719 C 97.956091 3.9096465 97.957031 2.2466035 97.957031 0.45507812 z M 88.871094 4.6777344 L 83.880859 6.9804688 C 84.776622 19.137248 85.927734 31.677278 85.927734 43.578125 C 85.927734 54.58321 85.415221 68.78752 84.775391 81.072266 L 88.998047 79.154297 C 88.23025 67.765314 87.207031 54.455389 87.207031 43.066406 C 87.207031 30.013864 88.103297 18.754005 88.871094 4.6777344 z M 80.169922 8.6445312 L 74.921875 11.076172 C 75.689672 22.337189 76.841797 35.900947 76.841797 47.673828 C 76.841797 58.422981 75.946471 72.627218 75.306641 85.423828 L 80.169922 83.121094 C 79.146193 70.324484 78.122034 55.99083 78.25 47.033203 C 78.25 36.284051 79.274159 21.313175 80.169922 8.6445312 z M 70.828125 12.994141 L 65.068359 15.681641 C 65.836156 25.023166 67.244141 38.204039 67.244141 52.152344 C 67.244141 64.693022 66.349755 79.53709 65.837891 89.902344 L 70.955078 87.470703 C 69.931349 76.08172 68.908203 62.38985 68.908203 51.384766 C 69.036169 40.123749 69.932362 25.662785 70.828125 12.994141 z M 61.869141 17.21875 L 55.214844 20.289062 L 55.214844 21.568359 C 55.34281 25.663275 57.902344 39.483402 57.902344 56.630859 C 57.902344 72.882554 55.726708 87.343591 55.214844 94.765625 L 61.869141 91.693359 C 60.973378 82.095902 59.566406 68.276932 59.566406 55.992188 C 59.566406 43.45151 60.973378 27.456038 61.869141 17.21875 z M 53.423828 21.185547 L 46.257812 24.511719 L 46.257812 37.564453 C 46.385779 45.626317 48.177734 52.40862 48.177734 61.238281 C 48.177734 69.81201 45.87406 81.968227 45.746094 90.669922 L 45.746094 99.244141 L 53.041016 95.789062 C 52.401185 88.750928 50.097656 74.802979 50.097656 60.214844 C 50.097656 43.195352 53.423828 26.815618 53.423828 22.720703 L 53.423828 21.185547 z M 44.082031 25.279297 L 36.916016 28.607422 L 36.916016 49.208984 C 37.043982 52.280171 39.091797 58.551781 39.091797 65.333984 C 39.091797 72.244154 36.916016 82.097001 36.916016 84.400391 L 36.916016 103.33984 L 43.699219 100.14062 L 43.699219 91.310547 C 43.827185 82.096988 41.138672 75.825543 41.138672 64.308594 C 41.138672 54.071306 43.826099 46.521934 44.082031 38.076172 L 44.082031 25.279297 z M 35.125 29.757812 L 27.958984 33.085938 L 27.958984 64.564453 C 27.958984 67.123775 30.005859 67.124272 30.005859 69.683594 C 30.005859 72.626814 27.831018 74.03472 27.958984 75.570312 L 27.958984 107.5625 L 34.869141 104.36328 L 34.869141 85.167969 C 34.869141 82.480681 32.566406 75.698365 32.566406 68.404297 C 32.566406 61.366161 35.125 52.79283 35.125 49.849609 L 35.125 29.757812 z M 26.039062 34.109375 L 19.128906 37.308594 L 19.128906 111.78516 L 26.039062 108.45703 L 26.039062 76.337891 C 25.783131 74.034501 24.119141 74.80245 24.119141 72.371094 C 24.119141 69.427873 26.039063 67.893088 26.039062 66.101562 L 26.039062 34.109375 z M 17.337891 38.076172 L 10.939453 41.019531 L 10.939453 115.49609 L 17.337891 112.42383 L 17.337891 38.076172 z M 9.1484375 41.916016 L 2.8769531 44.730469 L 2.8769531 119.20703 L 9.1484375 116.26367 L 9.1484375 41.916016 z M 36.660156 125.47656 C 31.28558 125.47656 25.016565 128.03637 25.144531 134.05078 C 25.272497 140.06519 31.413546 142.36914 36.660156 142.36914 C 41.906766 142.36914 47.53805 139.93722 47.666016 134.05078 C 47.793982 128.03637 42.034732 125.47656 36.660156 125.47656 z M 11.285156 125.65234 C 9.3356733 125.6471 7.2610169 125.94008 5.4375 126.75586 C 1.598517 128.54738 2.7488414 132.00267 3.3886719 132.89844 C 4.2844346 134.05013 5.8207429 134.69032 7.7402344 135.07422 C 10.427522 135.71405 14.138016 135.97063 16.441406 136.22656 C 18.61683 136.61046 18.360679 138.65704 17.208984 139.29688 C 15.161527 140.32058 10.172676 140.32075 7.3574219 138.78516 C 4.926066 137.5055 5.1816406 136.2257 5.1816406 135.8418 L 3.0058594 135.8418 L 3.0058594 141.60156 L 5.4375 141.60156 L 5.4375 141.08984 C 5.3095339 140.19408 6.460719 140.83391 7.2285156 141.08984 C 11.195465 142.3695 16.697332 142.62363 19.896484 140.57617 C 23.351569 138.27278 22.201324 133.92224 18.234375 132.64258 C 15.163189 131.74682 10.299556 131.87522 7.7402344 131.10742 C 5.8207429 130.46759 6.3333222 127.65227 12.091797 127.9082 C 17.594339 128.03617 19.001953 130.72338 19.001953 131.61914 L 20.919922 131.61914 L 20.919922 126.37305 L 18.873047 126.37305 C 19.128979 127.26881 18.618273 127.39656 18.234375 127.14062 C 17.434587 126.50081 14.534296 125.66109 11.285156 125.65234 z M 64.556641 126.11719 L 64.556641 128.03711 L 66.476562 128.03711 C 66.988427 128.16508 67.5 128.16377 67.5 129.1875 L 67.5 135.58594 L 57.390625 126.24414 L 49.841797 126.24414 L 49.841797 128.29297 L 51.759766 128.29297 C 52.783494 128.29297 52.785156 128.80353 52.785156 129.44336 L 52.785156 138.5293 C 52.785156 138.9132 52.656468 139.42578 51.888672 139.42578 L 49.96875 139.42578 L 49.96875 141.3457 L 58.927734 141.3457 L 58.927734 139.42578 L 56.878906 139.42578 C 56.367042 139.42578 55.855469 139.55303 55.855469 138.5293 C 55.855469 137.50557 55.855542 130.97953 55.599609 130.85156 L 67.5 141.2168 L 70.316406 141.2168 L 70.316406 128.93164 C 70.444372 128.54774 70.57212 128.03711 71.083984 128.03711 L 73.130859 128.03711 L 73.130859 126.11719 L 64.556641 126.11719 z M 75.177734 126.37305 L 75.177734 128.29297 L 76.841797 128.29297 C 77.865526 128.29297 78.376882 128.80461 78.632812 129.06055 C 78.760779 129.18851 84.648438 135.71484 84.648438 135.71484 L 84.648438 139.16992 C 84.648438 139.42585 84.520617 139.55273 84.136719 139.55273 L 81.705078 139.55273 L 81.705078 141.47266 L 91.814453 141.47266 L 91.814453 139.55273 L 89.638672 139.55273 C 89.254774 139.55273 89.253906 139.55382 89.253906 139.16992 L 89.253906 135.71484 C 89.253906 135.71484 94.629774 129.31554 95.013672 128.93164 C 95.141638 128.80367 95.524234 128.29297 96.164062 128.29297 L 98.083984 128.29297 L 98.083984 126.37305 L 89.638672 126.37305 L 89.638672 128.29297 L 90.917969 128.29297 C 91.301867 128.29297 91.42976 128.93157 91.173828 129.1875 L 87.71875 133.2832 C 87.71875 133.2832 84.64757 129.5714 84.263672 129.1875 C 83.879774 128.8036 84.136646 128.29297 84.392578 128.29297 L 85.416016 128.29297 L 85.416016 126.37305 L 75.177734 126.37305 z M 36.533203 127.78125 C 40.116254 127.78125 42.931641 129.95688 42.931641 133.92383 C 42.931641 137.76281 39.988288 139.93649 36.533203 140.06445 C 32.950152 140.19242 30.134766 137.89078 30.134766 133.92383 C 30.134766 129.95688 32.950152 127.78125 36.533203 127.78125 z M 27.832031 146.46289 C 25.144743 146.46289 21.816406 147.99992 21.816406 151.71094 C 21.944372 155.54992 25.39959 156.70117 28.214844 156.70117 C 31.28603 156.70117 32.822193 154.78067 33.078125 153.37305 L 31.798828 153.37305 C 31.41493 155.16457 29.494505 155.54883 28.214844 155.54883 C 26.295352 155.54883 24.376953 154.01433 24.376953 151.71094 C 24.376953 149.66348 25.527701 148.00007 27.703125 147.74414 C 29.750583 147.48821 31.670862 148.51027 31.798828 150.17383 L 32.822266 150.17383 L 32.822266 146.97461 L 31.669922 146.97461 C 31.797888 147.74241 31.543042 147.74226 31.287109 147.48633 C 30.903211 147.10243 29.495591 146.46289 27.832031 146.46289 z M 91.763672 146.66797 C 90.82642 146.68671 89.830839 146.8795 88.871094 147.35938 C 86.69567 148.51105 87.334852 150.43048 87.71875 151.07031 C 88.230614 151.71014 88.999709 152.09368 90.023438 152.34961 C 91.559029 152.73351 93.477211 152.86227 94.628906 152.99023 C 96.036533 153.24617 95.653502 154.52626 95.013672 154.91016 C 93.478079 155.80592 91.686057 155.67709 89.894531 154.52539 C 88.61487 153.75759 88.742186 152.99029 88.742188 152.73438 L 87.591797 152.73438 L 87.591797 156.18945 L 88.871094 156.18945 L 88.871094 155.93359 C 88.743128 155.42173 89.38368 155.80563 89.767578 155.93359 C 91.815036 156.82936 94.756363 156.9574 96.419922 155.67773 C 98.211447 154.27011 97.700814 151.58225 95.525391 150.81445 C 93.861831 150.17462 91.303096 150.30288 90.023438 149.79102 C 88.871743 149.27915 89.254985 147.61617 92.326172 147.74414 C 95.269392 147.87211 96.037109 149.66196 96.037109 150.17383 L 97.060547 150.17383 L 97.060547 146.97461 L 96.037109 146.97461 C 96.165075 147.74241 95.909289 147.74226 95.525391 147.48633 C 94.725603 147.08643 93.325758 146.63673 91.763672 146.66797 z M 34.613281 146.84766 L 34.613281 150.42969 L 35.636719 150.42969 C 35.636719 147.99833 35.764394 148.25492 36.660156 148.12695 L 38.835938 148.12695 L 38.835938 154.52539 C 38.835938 154.90929 38.708117 155.16602 38.324219 155.16602 L 37.300781 155.16602 L 37.300781 156.31641 L 42.802734 156.31641 L 42.802734 155.16602 L 41.779297 155.16602 C 41.395399 155.16602 41.267578 154.90929 41.267578 154.52539 L 41.267578 148.12695 L 43.443359 148.12695 C 44.211156 148.12695 44.466797 147.87037 44.466797 150.42969 L 45.619141 150.42969 L 45.619141 146.84766 L 34.613281 146.84766 z M 74.027344 146.84766 L 74.027344 148.12695 L 75.050781 148.12695 C 75.43468 148.12695 75.5625 148.38368 75.5625 148.76758 L 75.5625 154.52539 C 75.5625 154.90929 75.43468 155.03711 75.050781 155.03711 L 74.027344 155.03711 L 74.027344 156.31641 L 85.160156 156.31641 L 85.160156 152.73438 L 84.136719 152.73438 C 84.136719 154.52588 83.880138 154.90914 82.984375 155.03711 L 77.994141 155.03711 L 77.994141 151.83789 L 80.296875 151.83789 C 80.552807 151.83789 80.808594 151.96665 80.808594 152.47852 L 80.808594 153.50195 L 81.832031 153.50195 L 81.832031 149.15039 L 80.808594 149.15039 L 80.808594 150.17383 C 80.808594 150.68569 80.552807 150.81445 80.296875 150.81445 L 77.994141 150.81445 L 77.994141 148 L 82.984375 148 C 84.008104 148.12797 84.136719 148.63816 84.136719 150.42969 L 85.160156 150.42969 L 85.160156 146.84766 L 74.027344 146.84766 z M 2.75 146.97461 L 2.75 148.25586 L 3.7734375 148.25586 C 4.1573358 148.25586 4.2851562 148.38368 4.2851562 148.76758 L 4.2851562 154.52539 C 4.2851562 154.90929 4.1573358 155.03711 3.7734375 155.03711 L 2.75 155.03711 L 2.75 156.18945 L 8.2519531 156.18945 L 8.2519531 155.03711 L 7.2285156 155.03711 C 6.8446173 155.03711 6.7167969 154.90929 6.7167969 154.52539 L 6.7167969 152.22266 L 10.042969 152.22266 C 13.114155 152.22266 14.267578 151.45465 14.267578 149.53516 C 14.267578 147.61566 13.370882 146.97461 10.683594 146.97461 L 2.75 146.97461 z M 15.417969 146.97461 L 15.417969 148.12695 L 16.441406 148.12695 C 16.825305 148.12695 16.953125 148.25477 16.953125 148.63867 L 16.953125 154.52539 C 16.953125 154.90929 16.825305 155.03711 16.441406 155.03711 L 15.417969 155.03711 L 15.417969 156.18945 L 20.919922 156.18945 L 20.919922 155.03711 L 19.896484 155.03711 C 19.512586 155.03711 19.384766 154.90929 19.384766 154.52539 L 19.384766 148.76758 C 19.384766 148.38368 19.512586 148.12695 19.896484 148.12695 L 20.919922 148.12695 L 20.919922 146.97461 L 15.417969 146.97461 z M 47.025391 146.97461 L 47.025391 148.12695 L 48.048828 148.12695 C 48.432726 148.12695 48.5625 148.38368 48.5625 148.76758 L 48.5625 153.37305 C 48.5625 156.1883 50.992545 156.70117 53.167969 156.70117 C 55.343392 156.70117 57.519531 156.06033 57.519531 153.37305 L 57.519531 149.15039 C 57.519531 148.38259 57.775318 148.12695 58.03125 148.12695 L 59.054688 148.12695 L 59.054688 146.97461 L 54.447266 146.97461 L 54.447266 148.12695 L 55.472656 148.12695 C 55.856555 148.12695 55.984375 148.38368 55.984375 148.76758 L 55.984375 153.50195 C 55.984375 154.52568 55.727291 155.67773 53.167969 155.67773 C 50.864579 155.67773 50.992188 153.75789 50.992188 153.50195 L 50.992188 148.76758 C 50.992188 148.38368 51.120008 148.12695 51.503906 148.12695 L 52.529297 148.12695 L 52.529297 146.97461 L 47.025391 146.97461 z M 60.333984 146.97461 L 60.333984 148.12695 L 61.357422 148.12695 C 61.74132 148.12695 61.869141 148.38368 61.869141 148.76758 L 61.869141 154.52539 C 61.869141 154.90929 61.74132 155.03711 61.357422 155.03711 L 60.333984 155.03711 L 60.333984 156.31641 L 65.837891 156.31641 L 65.837891 155.03711 L 64.8125 155.03711 C 64.428602 155.03711 64.300781 154.90929 64.300781 154.52539 L 64.300781 152.22266 L 66.988281 152.22266 C 68.139976 152.22266 68.652344 152.60626 68.652344 153.24609 L 68.652344 154.26953 C 68.652344 156.06106 69.804323 156.44531 71.083984 156.44531 C 72.491611 156.44531 72.875 155.93309 72.875 154.26953 L 72.875 153.62891 L 71.851562 153.62891 L 71.851562 154.14062 C 71.851563 154.65249 71.978661 155.16602 71.466797 155.16602 C 70.954932 155.16602 70.955078 154.78132 70.955078 154.52539 L 70.955078 153.24609 C 70.827112 152.0944 70.188731 151.96687 69.292969 151.71094 C 70.444664 151.58297 71.595703 151.06974 71.595703 149.66211 C 71.595703 147.87058 70.699007 146.97461 68.011719 146.97461 L 60.333984 146.97461 z M 6.5878906 148.12695 L 9.7871094 148.12695 C 10.938804 148.12695 11.580078 148.51143 11.580078 149.53516 C 11.580078 150.55889 10.939817 150.94141 9.6601562 150.94141 L 6.7167969 150.94141 L 6.5878906 148.12695 z M 64.300781 148.12695 L 67.373047 148.12695 C 68.26881 148.12695 69.037109 148.63939 69.037109 149.53516 C 69.037109 150.43092 68.395836 150.94141 67.244141 150.94141 L 64.300781 150.94141 L 64.300781 148.12695 z M 2.4941406 161.82031 L 2.4941406 163.73828 L 98.083984 163.73828 L 98.083984 161.82031 L 2.4941406 161.82031 z M 42.675781 168.85742 C 39.220697 168.85742 36.916016 171.03342 36.916016 173.7207 C 36.916016 176.53596 39.220697 178.58398 42.675781 178.58398 C 46.130866 178.58398 48.433594 176.40799 48.433594 173.7207 C 48.56156 170.90545 46.130866 168.85742 42.675781 168.85742 z M 22.96875 169.11328 L 22.96875 170.26562 L 23.992188 170.26562 C 24.50405 170.26562 24.632812 170.39345 24.632812 170.77734 L 24.632812 176.66406 C 24.632812 177.04796 24.50405 177.17578 23.992188 177.17578 L 23.095703 177.17578 L 23.095703 178.32617 L 28.599609 178.32617 L 28.599609 177.17578 L 27.574219 177.17578 C 27.062354 177.17578 26.935547 177.04796 26.935547 176.66406 L 26.935547 174.10352 L 31.925781 174.10352 L 31.925781 176.66406 C 31.925781 177.04796 31.798974 177.17578 31.287109 177.17578 L 30.390625 177.17578 L 30.390625 178.32617 L 36.148438 178.32617 L 36.148438 177.17578 L 35.125 177.17578 C 34.613136 177.17578 34.484375 177.04796 34.484375 176.66406 L 34.484375 170.77734 C 34.484375 170.39345 34.613136 170.26562 35.125 170.26562 L 36.148438 170.26562 L 36.148438 169.11328 L 30.390625 169.11328 L 30.390625 170.26562 L 31.542969 170.26562 C 32.054833 170.26563 32.181641 170.39345 32.181641 170.77734 L 32.181641 173.08008 L 27.191406 173.08008 L 27.191406 170.77734 C 27.191406 170.39345 27.320167 170.26562 27.832031 170.26562 L 28.726562 170.26562 L 28.726562 169.11328 L 22.96875 169.11328 z M 49.457031 169.11328 L 49.457031 170.13672 L 50.353516 170.13672 C 50.737414 170.13672 50.992188 170.26454 50.992188 170.64844 L 50.992188 176.66406 C 50.992188 177.04796 50.736474 177.17578 50.224609 177.17578 L 49.330078 177.17578 L 49.330078 178.32617 L 54.320312 178.32617 L 54.320312 177.17578 L 53.423828 177.17578 C 53.03993 177.17578 52.65625 177.04796 52.65625 176.66406 L 52.912109 176.66406 L 52.912109 170.39258 L 55.984375 178.19922 L 57.390625 178.19922 L 60.589844 170.39258 L 60.589844 176.66406 C 60.589844 176.91999 60.33413 177.17578 59.822266 177.17578 L 58.927734 177.17578 L 58.927734 178.32617 L 64.429688 178.32617 L 64.429688 177.17578 L 63.533203 177.17578 C 63.021339 177.17578 62.765625 176.91905 62.765625 176.53516 L 62.765625 170.77734 C 62.765625 170.39345 63.022352 170.26562 63.40625 170.26562 L 64.300781 170.26562 L 64.300781 169.11328 L 59.439453 169.11328 L 56.878906 175.12891 L 54.576172 169.11328 L 49.457031 169.11328 z M 65.837891 169.11328 L 65.837891 170.39258 L 66.861328 170.39258 C 67.245226 170.39258 67.373047 170.5204 67.373047 170.9043 L 67.373047 176.66406 C 67.373047 177.04796 67.245226 177.17578 66.861328 177.17578 L 65.837891 177.17578 L 65.837891 178.32617 L 76.841797 178.32617 L 76.841797 174.87109 L 75.818359 174.87109 C 75.818359 176.66262 75.561778 177.04782 74.666016 177.17578 L 69.804688 177.17578 L 69.804688 174.10352 L 72.107422 174.10352 C 72.363354 174.10352 72.619141 174.23228 72.619141 174.74414 L 72.619141 175.76758 L 73.642578 175.76758 L 73.642578 171.41602 L 72.619141 171.41602 L 72.619141 172.44141 C 72.619141 172.95327 72.363354 173.08008 72.107422 173.08008 L 69.804688 173.08008 L 69.804688 170.26562 L 74.666016 170.26562 C 75.689744 170.26562 75.818359 170.77683 75.818359 172.56836 L 76.841797 172.56836 L 76.841797 169.11328 L 65.837891 169.11328 z M 42.675781 169.88086 C 45.235103 169.88086 46.001953 171.67325 46.001953 173.7207 C 46.001953 175.76816 45.362056 177.55859 42.802734 177.55859 C 40.243412 177.55859 39.476565 175.76816 39.476562 173.7207 C 39.476562 171.67325 40.244425 169.88086 42.675781 169.88086 z M 14.394531 183.44531 L 14.394531 184.3418 L 15.035156 184.3418 C 15.419055 184.3418 15.546875 184.59758 15.546875 184.85352 L 15.546875 188.43555 L 12.603516 183.57422 L 9.6601562 183.57422 L 9.6601562 184.46875 L 10.427734 184.46875 C 10.683667 184.46875 10.8125 184.59758 10.8125 184.85352 L 10.8125 189.20508 C 10.8125 189.46101 10.683667 189.58789 10.427734 189.58789 L 9.6601562 189.58789 L 9.6601562 190.48438 L 12.986328 190.48438 L 12.986328 189.58789 L 12.21875 189.58789 C 11.962818 189.58789 11.835938 189.46101 11.835938 189.20508 L 11.835938 184.98047 L 15.035156 190.35547 L 16.570312 190.35547 L 16.570312 184.72461 C 16.570312 184.46868 16.698133 184.3418 17.082031 184.3418 L 17.722656 184.3418 L 17.722656 183.44531 L 14.394531 183.44531 z M 61.998047 183.44531 L 61.998047 184.3418 L 62.638672 184.3418 C 63.02257 184.3418 63.150391 184.59758 63.150391 184.85352 L 63.150391 188.43555 L 60.207031 183.57422 L 57.263672 183.57422 L 57.263672 184.46875 L 58.03125 184.46875 C 58.287182 184.46875 58.414062 184.59758 58.414062 184.85352 L 58.414062 189.20508 C 58.414062 189.46101 58.287182 189.58789 58.03125 189.58789 L 57.263672 189.58789 L 57.263672 190.48438 L 60.589844 190.48438 L 60.589844 189.58789 L 59.822266 189.58789 C 59.566333 189.58789 59.439453 189.46101 59.439453 189.20508 L 59.439453 184.98047 L 62.638672 190.35547 L 64.173828 190.35547 L 64.173828 184.72461 C 64.173828 184.46868 64.301649 184.3418 64.685547 184.3418 L 65.324219 184.3418 L 65.324219 183.44531 L 61.998047 183.44531 z M 87.71875 183.44531 L 87.71875 184.3418 L 88.359375 184.3418 C 88.743273 184.3418 88.871094 184.59758 88.871094 184.85352 L 88.871094 188.43555 L 85.927734 183.57422 L 82.984375 183.57422 L 82.984375 184.46875 L 83.751953 184.46875 C 84.007885 184.46875 84.136719 184.59758 84.136719 184.85352 L 84.136719 189.20508 C 84.136719 189.46101 84.007885 189.58789 83.751953 189.58789 L 82.984375 189.58789 L 82.984375 190.48438 L 86.3125 190.48438 L 86.3125 189.58789 L 85.542969 189.58789 C 85.287037 189.58789 85.160156 189.46101 85.160156 189.20508 L 85.160156 184.98047 L 88.486328 190.35547 L 90.023438 190.35547 L 90.023438 184.72461 C 90.023437 184.46868 90.151258 184.3418 90.535156 184.3418 L 91.046875 184.3418 L 91.046875 183.44531 L 87.71875 183.44531 z M 65.964844 183.57422 L 65.964844 184.46875 L 66.605469 184.46875 C 66.861401 184.46875 66.988281 184.59758 66.988281 184.85352 L 66.988281 189.20508 C 66.988281 189.46101 66.860461 189.58789 66.476562 189.58789 L 65.837891 189.58789 L 65.837891 190.61133 L 69.164062 190.61133 L 69.164062 189.7168 L 68.523438 189.7168 C 68.267505 189.7168 68.011719 189.58796 68.011719 189.33203 L 68.140625 189.33203 L 68.140625 184.59766 L 70.060547 190.35547 L 71.083984 190.35547 L 73.130859 184.59766 L 73.130859 189.20508 C 73.130859 189.46101 72.875073 189.58789 72.619141 189.58789 L 71.851562 189.58789 L 71.851562 190.48438 L 75.5625 190.48438 L 75.5625 189.58789 L 74.921875 189.58789 C 74.537977 189.58789 74.410156 189.46007 74.410156 189.07617 L 74.410156 184.85352 C 74.410156 184.59758 74.53899 184.46875 74.794922 184.46875 L 75.5625 184.46875 L 75.5625 183.57422 L 72.363281 183.57422 L 70.699219 188.05273 L 69.292969 183.57422 L 65.964844 183.57422 z M 2.4941406 183.70117 L 2.4941406 184.59766 L 3.1328125 184.59766 C 3.3887447 184.59766 3.3886719 184.72454 3.3886719 184.98047 L 3.3886719 189.20508 C 3.3886719 189.46101 3.3887447 189.58789 3.1328125 189.58789 L 2.4941406 189.58789 L 2.4941406 190.48438 L 8.8925781 190.48438 L 8.8925781 187.92383 L 8.2519531 187.92383 C 8.2519531 189.20349 8.1251457 189.45992 7.6132812 189.58789 L 4.796875 189.58789 L 4.796875 187.41211 L 6.0761719 187.41211 C 6.204138 187.41211 6.3320314 187.41298 6.3320312 187.79688 L 6.3320312 188.56445 L 6.9726562 188.56445 L 6.9726562 185.36523 L 6.3320312 185.36523 L 6.3320312 186.13281 C 6.3320312 186.38874 6.204138 186.51758 6.0761719 186.51758 L 4.796875 186.51758 L 4.796875 184.46875 L 7.6132812 184.46875 C 8.1251457 184.59672 8.2519531 184.98206 8.2519531 186.26172 L 8.8925781 186.26172 L 8.8925781 183.70117 L 2.4941406 183.70117 z M 18.234375 183.70117 L 18.234375 186.26172 L 18.746094 186.26172 C 18.746094 184.59816 18.872901 184.72562 19.384766 184.59766 L 20.664062 184.59766 L 20.664062 189.33203 C 20.664062 189.58796 20.664135 189.7168 20.408203 189.7168 L 19.769531 189.7168 L 19.769531 190.61133 L 22.96875 190.61133 L 22.96875 189.7168 L 22.328125 189.7168 C 22.072193 189.7168 22.072266 189.58796 22.072266 189.33203 L 22.072266 184.59766 L 23.351562 184.59766 C 23.863427 184.59766 23.992188 184.47019 23.992188 186.26172 L 24.632812 186.26172 L 24.632812 183.70117 L 18.234375 183.70117 z M 25.271484 183.70117 L 25.271484 184.59766 L 25.912109 184.59766 C 26.168042 184.59766 26.167969 184.72454 26.167969 184.98047 L 26.167969 189.20508 C 26.167969 189.46101 26.168042 189.58789 25.912109 189.58789 L 25.271484 189.58789 L 25.271484 190.48438 L 31.669922 190.48438 L 31.669922 187.92383 L 31.029297 187.92383 C 31.029297 189.20349 30.902489 189.45992 30.390625 189.58789 L 27.574219 189.58789 L 27.574219 187.41211 L 28.855469 187.41211 C 28.983435 187.41211 29.111328 187.41298 29.111328 187.79688 L 29.111328 188.56445 L 29.75 188.56445 L 29.75 185.36523 L 29.111328 185.36523 L 29.111328 186.13281 C 29.111328 186.38874 28.983435 186.51758 28.855469 186.51758 L 27.574219 186.51758 L 27.574219 184.46875 L 30.390625 184.46875 C 30.902489 184.59672 31.029297 184.98206 31.029297 186.26172 L 31.669922 186.26172 L 31.669922 183.70117 L 25.271484 183.70117 z M 32.181641 183.70117 L 32.181641 184.59766 L 32.822266 184.59766 C 32.950232 184.59766 33.078125 184.72454 33.078125 184.98047 L 33.078125 189.20508 C 33.078125 189.46101 33.078198 189.58789 32.822266 189.58789 L 32.181641 189.58789 L 32.181641 190.48438 L 35.636719 190.48438 L 35.636719 189.58789 L 34.998047 189.58789 C 34.742115 189.58789 34.742188 189.46101 34.742188 189.20508 L 34.742188 187.54102 L 36.404297 187.54102 C 37.044127 187.54102 37.427734 187.79673 37.427734 188.30859 L 37.427734 189.07617 C 37.427734 190.4838 38.197047 190.74023 38.964844 190.74023 C 39.860606 190.74023 40.115234 190.35677 40.115234 189.20508 L 40.115234 188.69141 L 39.476562 188.69141 L 39.476562 189.07617 C 39.476562 189.46007 39.476635 189.84375 39.220703 189.84375 C 38.964771 189.84375 38.964844 189.46 38.964844 189.33203 L 38.964844 188.30859 C 38.964844 187.41283 38.579284 187.28422 37.939453 187.15625 C 38.579284 187.02828 39.348669 186.64482 39.220703 185.62109 C 39.220703 184.34143 38.579575 183.70117 36.916016 183.70117 L 32.181641 183.70117 z M 39.859375 183.70117 L 39.859375 186.26172 L 40.371094 186.26172 C 40.371094 184.59816 40.499854 184.59766 41.011719 184.59766 L 42.291016 184.59766 L 42.291016 189.33203 C 42.291016 189.58796 42.291088 189.7168 42.035156 189.7168 L 41.394531 189.7168 L 41.394531 190.48438 L 44.59375 190.48438 L 44.59375 189.7168 L 43.955078 189.7168 C 43.699146 189.7168 43.699219 189.58796 43.699219 189.33203 L 43.699219 184.59766 L 44.978516 184.59766 C 45.49038 184.59766 45.619141 184.47019 45.619141 186.26172 L 46.257812 186.26172 L 46.257812 183.70117 L 39.859375 183.70117 z M 48.689453 183.70117 L 46.642578 189.20508 C 46.386646 189.71694 46.002099 189.7168 45.490234 189.7168 L 45.746094 189.7168 L 45.746094 190.61133 L 49.074219 190.61133 L 49.074219 189.7168 L 48.304688 189.7168 C 48.048755 189.7168 47.921875 189.71586 47.921875 189.58789 L 48.048828 189.33203 L 48.304688 188.43555 L 50.736328 188.43555 L 50.992188 189.33203 L 50.992188 189.58789 C 50.992187 189.71586 50.99226 189.7168 50.736328 189.7168 L 49.841797 189.7168 L 49.841797 190.61133 L 53.552734 190.61133 L 53.552734 190.48438 L 56.751953 190.48438 L 56.751953 189.58789 L 56.111328 189.58789 C 55.855396 189.58789 55.855469 189.46101 55.855469 189.20508 L 55.855469 184.98047 C 55.855469 184.72454 55.855396 184.59766 56.111328 184.59766 L 56.751953 184.59766 L 56.751953 183.70117 L 53.552734 183.70117 L 53.552734 184.59766 L 54.191406 184.59766 C 54.447338 184.59766 54.447266 184.72454 54.447266 184.98047 L 54.447266 189.20508 C 54.447266 189.46101 54.447338 189.58789 54.191406 189.58789 L 53.552734 189.58789 L 53.552734 189.7168 C 52.912904 189.7168 52.656323 189.71694 52.400391 189.20508 L 50.224609 183.70117 L 48.689453 183.70117 z M 75.947266 183.70117 L 75.947266 184.59766 L 76.585938 184.59766 C 76.713902 184.59766 76.841797 184.72454 76.841797 184.98047 L 76.841797 189.20508 C 76.841797 189.46101 76.841868 189.58789 76.585938 189.58789 L 75.947266 189.58789 L 75.947266 190.48438 L 82.34375 190.48438 L 82.34375 187.92383 L 81.705078 187.92383 C 81.705078 189.20349 81.576318 189.45992 81.064453 189.58789 L 78.25 189.58789 L 78.25 187.41211 L 79.529297 187.41211 C 79.657263 187.41211 79.785156 187.41298 79.785156 187.79688 L 79.785156 188.56445 L 80.425781 188.56445 L 80.425781 185.36523 L 79.785156 185.36523 L 79.785156 186.13281 C 79.785156 186.38874 79.657263 186.51758 79.529297 186.51758 L 78.25 186.51758 L 78.25 184.46875 L 81.064453 184.46875 C 81.576318 184.59672 81.705078 184.98206 81.705078 186.26172 L 82.34375 186.26172 L 82.34375 183.70117 L 75.947266 183.70117 z M 91.685547 183.70117 L 91.685547 186.26172 L 92.197266 186.26172 C 92.197266 184.59816 92.326026 184.72562 92.837891 184.59766 L 94.117188 184.59766 L 94.117188 189.33203 C 94.117187 189.58796 94.11726 189.7168 93.861328 189.7168 L 93.222656 189.7168 L 93.222656 190.61133 L 96.419922 190.61133 L 96.419922 189.7168 L 95.78125 189.7168 C 95.525318 189.7168 95.525391 189.58796 95.525391 189.33203 L 95.525391 184.59766 L 96.804688 184.59766 C 97.31655 184.59766 97.445312 184.47019 97.445312 186.26172 L 98.083984 186.26172 L 98.083984 183.70117 L 91.685547 183.70117 z M 34.869141 184.59766 L 36.789062 184.59766 C 37.300927 184.59766 37.8125 184.98126 37.8125 185.62109 C 37.8125 186.26092 37.427953 186.64453 36.660156 186.64453 L 34.742188 186.64453 L 34.869141 184.59766 z M 49.201172 185.10938 L 50.097656 187.54102 L 48.433594 187.54102 L 49.201172 185.10938 z "
   transform="matrix(0.78145696,0,0,0.78145696,26.251219,316.84504)"
   id="path4" />
		
		
		
		
		
		
		
		
		
		
		<g
   id="g70"
   style="fill:#000000">
			<g
   id="g40"
   style="fill:#000000">
				<g
   id="g28"
   style="fill:#000000">
					
				</g>
				
				<g
   id="g34"
   style="fill:#000000">
					
				</g>
				<g
   id="g38"
   style="fill:#000000">
					
				</g>
			</g>
			
			<g
   id="g46"
   style="fill:#000000">
				
			</g>
			<g
   id="g50"
   style="fill:#000000">
				
			</g>
			<g
   id="g54"
   style="fill:#000000">
				
			</g>
			<g
   id="g58"
   style="fill:#000000">
				
			</g>
			
			<g
   id="g64"
   style="fill:#000000">
				
			</g>
			<g
   id="g68"
   style="fill:#000000">
				
			</g>
		</g>
	</g>
	<g
   id="g134"
   style="fill:#000000">
		
		<g
   id="g118"
   style="fill:#000000">
			<g
   id="g114"
   style="fill:#000000">
				<g
   id="g78"
   style="fill:#000000">
					
				</g>
				<g
   id="g82"
   style="fill:#000000">
					
				</g>
				<g
   id="g86"
   style="fill:#000000">
					
				</g>
				<g
   id="g90"
   style="fill:#000000">
					
				</g>
				<g
   id="g94"
   style="fill:#000000">
					
				</g>
				
				<g
   id="g100"
   style="fill:#000000">
					
				</g>
				<g
   id="g104"
   style="fill:#000000">
					
				</g>
				
				
				
				
			</g>
			
		</g>
		<g
   id="g132"
   style="fill:#000000">
			
			<g
   id="g124"
   style="fill:#000000">
				
			</g>
			
			<g
   id="g130"
   style="fill:#000000">
				
			</g>
		</g>
	</g>
</g>
</svg>