<?xml version="1.0" encoding="utf-8"?>
<!-- Generator: Adobe Illustrator 26.0.3, SVG Export Plug-In . SVG Version: 6.00 Build 0)  -->
<svg version="1.0" id="katman_1" xmlns="http://www.w3.org/2000/svg" xmlns:xlink="http://www.w3.org/1999/xlink" x="0px" y="0px"
	 viewBox="0 0 600 450" style="enable-background:new 0 0 600 450;" xml:space="preserve">
<style type="text/css">
	.st0{filter:url(#Adobe_OpacityMaskFilter);}
	.st1{fill-rule:evenodd;clip-rule:evenodd;fill:#FFFFFF;}
	.st2{mask:url(#b_00000126286278116826546760000010494775063792689336_);fill-rule:evenodd;clip-rule:evenodd;fill:#E95220;}
	.st3{fill-rule:evenodd;clip-rule:evenodd;fill:#E95220;}
</style>
<g>
	<g transform="translate(0 .028)">
		<defs>
			<filter id="Adobe_OpacityMaskFilter" filterUnits="userSpaceOnUse" x="60.5" y="193.9" width="477.8" height="63.3">
				<feColorMatrix  type="matrix" values="1 0 0 0 0  0 1 0 0 0  0 0 1 0 0  0 0 0 1 0"/>
			</filter>
		</defs>
		
			<mask maskUnits="userSpaceOnUse" x="60.5" y="193.9" width="477.8" height="63.3" id="b_00000126286278116826546760000010494775063792689336_">
			<g class="st0">
				<path id="a_00000164481106737515341870000011786313273550233742_" class="st1" d="M60.5,193.9h477.8v63.3H60.5V193.9z"/>
			</g>
		</mask>
		<path class="st2" d="M71.2,241.9c1.2,0,2.3-0.8,2.7-2l4.8-17.1l4.9,17.1c0.3,1.2,1.4,2,2.7,2h1.3c1.2,0,2.3-0.8,2.7-2l6.7-22.8
			c0.2-0.8-0.2-1.7-1.1-1.9c-0.1,0-0.3-0.1-0.4-0.1H94c-1.2,0-2.3,0.8-2.6,2l-4.6,17.5l-4.6-17.5c-0.3-1.2-1.4-2-2.6-2h-1.8
			c-1.2,0-2.3,0.8-2.6,2l-4.6,17.5L66,217.1c-0.3-1.2-1.4-2-2.6-2h-1.3c-0.9,0-1.6,0.7-1.6,1.6c0,0.1,0,0.3,0.1,0.4l6.6,22.8
			c0.3,1.2,1.5,2,2.7,2H71.2z M190.5,228.5c-0.2-8.1-4.5-14.1-11.4-14.1c-3.2,0-5.5,1.2-7.2,2.8v-0.2c0-1.2-0.9-2.1-2.1-2.1h-0.8
			c-1.2,0-2.1,0.9-2.1,2.1v31.8c0,1.1,0.9,2.1,2.1,2.1h0.9c1.1,0,2.1-1,2.1-2.1v-9.1c1.7,1.5,4,2.7,7.1,2.7
			C186.1,242.4,190.3,236.5,190.5,228.5z M219.3,241.9c1,0,1.8-0.8,1.8-1.8v-1.7c0-0.7-0.6-1.2-1.2-1.2h-1.3c-0.6,0-1.1-0.4-1.1-1
			v-11.6c0-6.2-4.1-10-10.6-10c-4.4,0-8.6,2-10.2,5.9c-0.4,0.9,0.3,2.3,1.2,2.6l1,0.3c1.4,0.4,2.3,0,2.9-1.3c0.9-2,2.6-2.8,5.1-2.8
			c3.7,0,5.6,2.2,5.5,5.3c-1.1,1.5-4.3,1.6-7.7,1.6c-5.5,0-9.3,2.7-9.3,8c0,5.5,4.2,8.4,10.1,8.4c3,0,6.1-0.8,7.7-3
			c0.9,1.5,2.5,2.4,4.1,2.4H219.3L219.3,241.9z M124.3,241.9c1,0,1.8-0.8,1.8-1.8v-1.7c0-0.7-0.6-1.2-1.2-1.2h-1.3
			c-0.6,0-1.1-0.4-1.1-1v-11.6c0-6.2-4.1-10-10.6-10c-4.4,0-8.6,2-10.2,5.9c-0.4,0.9,0.3,2.3,1.2,2.6l1,0.3c1.4,0.4,2.3,0,2.9-1.3
			c0.9-2,2.7-2.8,5.1-2.8c3.7,0,5.6,2.2,5.5,5.3c-1.1,1.5-4.4,1.6-7.8,1.6c-5.2,0-9.2,2.7-9.2,8c0,5.5,4.3,8.4,10.1,8.4
			c2.9,0,6.1-0.8,7.7-3c0.9,1.5,2.5,2.4,4.1,2.4C122.4,241.9,124.3,241.9,124.3,241.9z M249.8,241.9c1,0,1.8-0.8,1.8-1.8v-1.7
			c0-0.7-0.6-1.2-1.2-1.2H249c-0.6,0-1.1-0.4-1.1-1V208c0-1.2-0.9-2.1-2.1-2.1h-0.9c-1.2,0-2.1,0.9-2.1,2.1v9.1
			c-1.7-1.5-4-2.7-7.1-2.7c-7,0-11.3,6-11.4,14.1c0.2,8,4.4,13.9,11.4,13.9c3.6,0,6-1.5,7.8-3.4c0.9,1.7,2.6,2.8,4.4,2.8H249.8
			L249.8,241.9z M200.6,234c0-2.2,1.5-3.5,3.9-3.5c2.9,0,6.3-0.1,7.8-1.3v4.9c-0.3,2.4-2.7,3.5-6,3.5
			C203.3,237.6,200.6,236.5,200.6,234z M105.6,234c0-2.2,1.6-3.5,3.8-3.5c2.9,0,6.4-0.1,7.9-1.3v4.9c-0.3,2.4-2.7,3.5-6,3.5
			C108.3,237.6,105.6,236.5,105.6,234z M229.5,228.5c0.1-5.2,2.5-9.1,6.8-9.1c3,0,5.3,1.9,6.5,3.8v10.6c-1.2,1.8-3.5,3.8-6.5,3.8
			C232.1,237.5,229.6,233.6,229.5,228.5z M172,233.7v-10.6c1.2-1.8,3.5-3.8,6.5-3.8c4.2,0,6.7,3.9,6.8,9.1c-0.1,5.2-2.5,9-6.8,9
			C175.5,237.5,173.2,235.6,172,233.7z M144.3,239.8c0,1.1-1,2.1-2.1,2.1h-3.4c-3.3,0-6-2.5-6-6v-16h-3.8c-1.2,0-2.1-0.9-2.1-2.1
			v-0.7c0-1.2,0.9-2.1,2.1-2.1h3.8v-7c0-1.1,0.9-2.1,2.1-2.1h0.9c1.1,0,2.1,1,2.1,2.1v7h11.2v-7c0-1.1,0.9-2.1,2.1-2.1h0.9
			c1.1,0,2.1,1,2.1,2.1v7h4.7c1.1,0,2.1,0.9,2.1,2.1v0.7c0,1.1-0.9,2.1-2.1,2.1h-4.7v15.6c0,0.9,0.6,1.6,1.6,1.6h3
			c1.2,0,2.1,0.9,2.1,2.1v0.6c0,1.1-0.9,2.1-2.1,2.1h-3.7c-3.3,0-6-2.5-6-6v-16H138v15.6c0,0.9,0.6,1.6,1.6,1.6h2.7
			c1.1,0,2.1,0.9,2.1,2.1L144.3,239.8L144.3,239.8z M469.5,257.1c12.8,0,14.7-15.7,23.4-29.8c-0.3,5,0,9.5,0.9,12.5
			c3.8,12.1,17,13,22.9,0.7c8.4-17.3,10.8-21.3,19.3-33.8c5.6-8.2-0.9-13.5-8.4-9.7c-3.9,2-10.1,6.9-18,17.3
			c1.4-7.9,1-21.3-10.4-20.5c-6,0.4-13.8,7.2-24.5,24.6c0.9-9.8,1.2-16.7-3-20.4c-2.9-2.5-9.8-3.5-13.9,1.9
			c-4.1,5.4-5.1,15.9-4.7,27C454.1,250.1,462.3,257.1,469.5,257.1L469.5,257.1z"/>
	</g>
	<path class="st3" d="M280.2,239.7c4.4,0.1,6.8-1.9,6.8-4.5c0-2-1.5-3.1-3.5-3.4c-2.3-0.4-4.6-0.9-6.8-1.5c-2.9-0.9-5.9-3-5.9-6.9
		c0-4.5,4-7.6,9.5-7.6c5.2,0,8.9,3.1,9.6,7c0.1,0.6-0.3,1.2-1,1.2h-1.7c-0.6,0-1.3-0.4-1.4-1.1c-0.4-1.7-2.2-3.7-5.6-3.7
		c-3.5,0-5.7,1.7-5.7,4.2c0,1.8,1.4,3,3.3,3.4c2,0.5,4.4,1,6.5,1.4c3.3,0.6,6.5,2.8,6.5,7.1c0,4.4-3.9,8-10.7,8
		c-6,0-10.2-3.5-10.5-8.3c-0.1-0.7,0.4-1.2,1-1.2h1.7c0.7,0,1.2,0.5,1.3,1.2C273.9,237.5,276.3,239.6,280.2,239.7 M294.2,219.8
		c-0.7,0-1.3-0.5-1.3-1.2v-1.3c0-0.7,0.5-1.2,1.3-1.2h4.1v-8.5c0-0.7,0.5-1.2,1.2-1.2h1.5c0.7,0,1.2,0.5,1.2,1.2v8.5h5
		c0.7,0,1.2,0.5,1.2,1.1c0,0,0,0.1,0,0.1v1.3c0,0.6-0.5,1.2-1.2,1.2h-5v16.9c0,1.5,1,2.5,2.5,2.5h2.5c0.7,0,1.2,0.5,1.2,1.1v1.3
		c0,0.7-0.5,1.2-1.2,1.2h-2.5c-3.8,0-6.3-2.4-6.3-6v-16.9H294.2z M331.5,239.3c-1.9,2.4-4.9,3.9-8.1,3.9c-6.3,0-10.2-4-10.2-10.3
		v-15.5c0-0.7,0.5-1.2,1.2-1.2h1.5c0.7,0,1.2,0.5,1.2,1.1c0,0,0,0.1,0,0.1v15.4c0,4.3,2.3,6.8,6.7,6.8c3.4,0,6.5-2.8,7.4-5.3v-17
		c0-0.7,0.5-1.2,1.1-1.2c0,0,0.1,0,0.1,0h1.6c0.7,0,1.2,0.5,1.2,1.2v24.2c0,0.6-0.6,1.2-1.2,1.2h-1.3c-0.7,0-1.1-0.4-1.2-1.2
		L331.5,239.3z M360.2,223.8c-1.2-2.2-4.1-4.5-7.2-4.5c-5,0-8,4.5-8,10.2c0,5.8,2.9,10.1,8,10.1c3.5,0,6.4-3,7.2-5.2V223.8z
		 M360.2,239.4c-1.5,2-4.4,3.7-7.5,3.7c-7.3,0-11.8-5.8-11.8-13.7c-0.1-7.8,4.5-13.8,11.9-13.8c2.8,0,5.4,1.3,7.3,3.3v-13.8
		c0-0.7,0.5-1.3,1.3-1.3h1.4c0.7,0,1.2,0.6,1.2,1.3v36.4c0,0.6-0.5,1.2-1.2,1.2h-1.4c-0.7,0-1.2-0.5-1.2-1.2L360.2,239.4z
		 M372.7,217.3c0-0.6,0.5-1.2,1.2-1.2h1.5c0.7,0,1.2,0.6,1.2,1.2v24.2c0,0.7-0.6,1.2-1.2,1.2h-1.5c-0.7,0-1.2-0.6-1.2-1.2V217.3z
		 M374.7,204.2c1.9,0,3.4,1.4,3.4,3.4c0,1.9-1.5,3.3-3.4,3.3c-1.9,0-3.3-1.4-3.3-3.3C371.4,205.6,372.8,204.2,374.7,204.2
		L374.7,204.2z M387.6,229.4c0,5.9,3.4,10.1,8.2,10.1c4.8,0,8.2-4.1,8.2-10.1c0-5.8-3.5-10-8.2-10
		C391,219.4,387.6,223.6,387.6,229.4 M383.7,229.4c0-7.9,5.5-13.7,12.1-13.7c6.6,0,12.1,5.8,12.1,13.7c0,8-5.2,13.8-12.1,13.8
		C388.8,243.2,383.7,237.4,383.7,229.4 M422.1,239.7c4.4,0.1,6.8-1.9,6.8-4.5c0-2-1.5-3.1-3.5-3.4c-2.3-0.4-4.6-0.9-6.8-1.5
		c-2.9-0.9-5.9-3-5.9-6.9c0-4.5,4-7.6,9.5-7.6c5.2,0,8.9,3.1,9.6,7c0.1,0.6-0.3,1.2-1,1.2h-1.7c-0.6,0-1.3-0.4-1.4-1.1
		c-0.4-1.7-2.2-3.7-5.6-3.7c-3.5,0-5.7,1.7-5.7,4.2c0,1.8,1.4,3,3.3,3.4c2,0.5,4.4,1,6.5,1.4c3.3,0.6,6.5,2.8,6.5,7.1
		c0,4.4-3.9,8-10.7,8c-6,0-10.2-3.5-10.5-8.3c-0.1-0.7,0.4-1.2,1-1.2h1.7c0.7,0,1.2,0.5,1.3,1.2
		C415.8,237.5,418.2,239.6,422.1,239.7"/>
</g>
</svg>
